<svg id="Capa_1" height="512" width="512" xmlns="http://www.w3.org/2000/svg"><path fill="#a3bbc8" d="M484.3 31.32H107a7.5 7.5 0 000 15h377.3c7.003 0 12.7 5.697 12.7 12.7v69.27H15V59.02c0-7.003 5.697-12.7 12.7-12.7H72a7.5 7.5 0 000-15H27.7C12.426 31.32 0 43.746 0 59.02v393.96c0 15.274 12.426 27.7 27.7 27.7h55.67a7.5 7.5 0 000-15H27.7c-7.003 0-12.7-5.697-12.7-12.7V143.29h482v309.69c0 7.003-5.697 12.7-12.7 12.7H118.37a7.5 7.5 0 000 15H484.3c15.274 0 27.7-12.426 27.7-27.7V59.02c0-15.274-12.426-27.7-27.7-27.7z"/><path fill="#fcd7b6" d="M472.175 110.965a7.5 7.5 0 007.5-7.5V71.14a7.5 7.5 0 00-7.5-7.5H233.776a7.5 7.5 0 00-7.5 7.5v32.325a7.5 7.5 0 007.5 7.5zM241.276 78.64h223.398v17.325H241.276z"/><path fill="#436372" d="M55.988 63.64c-13.047 0-23.663 10.615-23.663 23.663s10.615 23.663 23.663 23.663S79.65 100.35 79.65 87.303 69.035 63.64 55.988 63.64zm0 32.325c-4.776 0-8.663-3.886-8.663-8.663s3.886-8.663 8.663-8.663 8.663 3.886 8.663 8.663-3.887 8.663-8.663 8.663z"/><path fill="#a3bbc8" d="M144.301 87.303c0-13.047-10.615-23.663-23.663-23.663S96.976 74.255 96.976 87.303s10.615 23.663 23.663 23.663 23.662-10.616 23.662-23.663zm-32.325 0c0-4.776 3.886-8.663 8.663-8.663s8.663 3.886 8.663 8.663-3.886 8.663-8.663 8.663-8.663-3.887-8.663-8.663z"/><path fill="#dae4e9" d="M208.951 87.303c0-13.047-10.615-23.663-23.663-23.663s-23.663 10.615-23.663 23.663 10.615 23.663 23.663 23.663 23.663-10.616 23.663-23.663zm-32.325 0c0-4.776 3.886-8.663 8.663-8.663s8.663 3.886 8.663 8.663-3.886 8.663-8.663 8.663-8.663-3.887-8.663-8.663z"/><path fill="#436372" d="M246.48 372.17c0 8.591 6.989 15.58 15.58 15.58h202.03c8.591 0 15.58-6.989 15.58-15.58v-16.16c0-8.596-6.989-15.59-15.58-15.59H444.9c-4.143 0-7.5 3.358-7.5 7.5s3.357 7.5 7.5 7.5h19.189c.325 0 .58.259.58.59v16.16c0 .325-.255.58-.58.58H262.06a.581.581 0 01-.58-.58v-16.16c0-.325.261-.59.58-.59H409.9c4.143 0 7.5-3.358 7.5-7.5s-3.357-7.5-7.5-7.5H262.06c-8.591 0-15.58 6.994-15.58 15.59z"/><path fill="#fcd7b6" d="M304.923 234.123c-.5-5.991-4.033-10.857-9.002-12.396-2.351-.728-8.433-1.67-14.104 5.29-4.943 6.064-29.526 50.478-34.404 59.319a7.5 7.5 0 006.566 11.123h35.895c-.046 6.407-.095 12.574-.143 18.076a7.5 7.5 0 007.436 7.564h.065a7.5 7.5 0 007.499-7.436c.028-3.286.084-9.988.145-18.205h3.657c4.143 0 7.5-3.358 7.5-7.5s-3.357-7.5-7.5-7.5h-3.557c.13-21.414.21-45.186-.053-48.335zm-14.95 48.336h-23.255c8.524-15.286 18.175-32.275 23.364-40.798.047 8.562-.012 24.406-.109 40.798zm178.59-48.334c-.499-5.992-4.032-10.858-9.001-12.396-2.353-.729-8.433-1.672-14.104 5.29-4.943 6.064-29.526 50.478-34.404 59.319a7.502 7.502 0 006.567 11.123h35.895c-.046 6.407-.095 12.574-.143 18.076a7.5 7.5 0 007.436 7.564h.065a7.501 7.501 0 007.499-7.436c.028-3.287.084-9.988.144-18.205h3.658c4.143 0 7.5-3.358 7.5-7.5s-3.357-7.5-7.5-7.5h-3.558c.13-21.416.209-45.188-.054-48.335zm-14.95 48.334h-23.254c8.523-15.284 18.173-32.272 23.363-40.797.049 8.564-.011 24.407-.109 40.797z"/><path fill="#a3bbc8" d="M394.714 291.463v-38.601c0-17.444-14.192-31.637-31.637-31.637s-31.637 14.192-31.637 31.637v38.601c0 17.444 14.192 31.637 31.637 31.637s31.637-14.193 31.637-31.637zm-48.274 0v-38.601c0-9.173 7.463-16.637 16.637-16.637s16.637 7.463 16.637 16.637v38.601c0 9.173-7.463 16.637-16.637 16.637s-16.637-7.464-16.637-16.637z"/><path fill="#436372" d="M229.154 304.488c0-54.266-44.148-98.415-98.415-98.415s-98.415 44.148-98.415 98.415 44.148 98.415 98.415 98.415 98.415-44.149 98.415-98.415zm-181.829 0c0-45.995 37.419-83.415 83.415-83.415s83.415 37.419 83.415 83.415-37.419 83.415-83.415 83.415-83.415-37.42-83.415-83.415z"/><path fill="#436372" d="M155.565 346.915a7.5 7.5 0 0015 0c0-21.959-17.866-39.825-39.825-39.825s-39.825 17.866-39.825 39.825a7.5 7.5 0 0015 0c0-13.688 11.137-24.825 24.825-24.825s24.825 11.136 24.825 24.825zm-62.273-62.054l1.84 1.84c1.464 1.465 3.384 2.197 5.303 2.197s3.839-.732 5.303-2.197a7.5 7.5 0 000-10.606l-1.84-1.84 1.84-1.84a7.5 7.5 0 000-10.606 7.5 7.5 0 00-10.606 0l-1.84 1.84-1.84-1.84a7.498 7.498 0 00-10.606 0 7.5 7.5 0 000 10.606l1.84 1.84-1.84 1.84a7.5 7.5 0 000 10.606c1.464 1.465 3.384 2.197 5.303 2.197s3.839-.732 5.303-2.197zm62.45 1.84c1.464 1.464 3.384 2.197 5.303 2.197s3.839-.732 5.303-2.197l1.84-1.84 1.84 1.84c1.464 1.464 3.384 2.197 5.303 2.197s3.839-.732 5.303-2.197a7.5 7.5 0 000-10.606l-1.84-1.84 1.84-1.84a7.5 7.5 0 000-10.606 7.5 7.5 0 00-10.606 0l-1.84 1.84-1.84-1.84a7.5 7.5 0 00-10.606 0 7.5 7.5 0 000 10.606l1.84 1.84-1.84 1.84a7.497 7.497 0 000 10.606z"/></svg>