<svg xmlns="http://www.w3.org/2000/svg" width="22" height="18">
    <path data-name="Forma 1" d="M21.99 5.82a6.208 6.208 0 00-1.849-4.1A5.871 5.871 0 0016 0c-2.311 0-3.948 1.78-4.827 2.74a2.156 2.156 0 01-.156.17l-.083-.09C10.134 1.9 8.458 0 5.996 0a5.873 5.873 0 00-4.139 1.72 6.208 6.208 0 00-1.849 4.1 6.845 6.845 0 001.271 4.34 29.307 29.307 0 004.763 4.75C7.747 16.32 9.992 18 11.007 18c1.032 0 3.269-1.68 4.965-3.09a29.234 29.234 0 004.746-4.75 6.935 6.935 0 001.272-4.34zm-2.376 3.61a27 27 0 01-4.431 4.42c-2.406 2-3.831 2.79-4.172 2.82-.342-.03-1.77-.83-4.188-2.84a26.78 26.78 0 01-4.437-4.4 5.6 5.6 0 01-1.054-3.54 4.807 4.807 0 014.666-4.57c1.863 0 3.216 1.54 3.943 2.37A1.52 1.52 0 0011 4.45a1.731 1.731 0 001.151-.81c.794-.87 2.122-2.32 3.851-2.32a4.807 4.807 0 014.666 4.57 5.528 5.528 0 01-1.054 3.54z"/>
</svg>
