<svg id="Capa_1" enable-background="new 0 0 512 512" height="512" viewBox="0 0 512 512" width="512"
	xmlns="http://www.w3.org/2000/svg">
	<g>
		<g>
			<path fill="#a3bbc8" d="m484.3 31.32h-377.3c-4.142 0-7.5 3.358-7.5 7.5s3.358 7.5 7.5 7.5h377.3c7.003 0 12.7 5.697 12.7 12.7v69.27h-482v-69.27c0-7.003 5.697-12.7 12.7-12.7h44.3c4.142 0 7.5-3.358 7.5-7.5s-3.358-7.5-7.5-7.5h-44.3c-15.274 0-27.7 12.426-27.7 27.7v393.96c0 15.274 12.426 27.7 27.7 27.7h55.67c4.142 0 7.5-3.358 7.5-7.5s-3.358-7.5-7.5-7.5h-55.67c-7.003 0-12.7-5.697-12.7-12.7v-309.69h482v309.69c0 7.003-5.697 12.7-12.7 12.7h-365.93c-4.142 0-7.5 3.358-7.5 7.5s3.358 7.5 7.5 7.5h365.93c15.274 0 27.7-12.426 27.7-27.7v-393.96c0-15.274-12.426-27.7-27.7-27.7z"/>
			<path fill="#fcd7b6" d="m472.175 110.965c4.143 0 7.5-3.358 7.5-7.5v-32.325c0-4.142-3.357-7.5-7.5-7.5h-238.399c-4.142 0-7.5 3.358-7.5 7.5v32.325c0 4.142 3.358 7.5 7.5 7.5zm-230.899-32.325h223.398v17.325h-223.398z"/>
			<path fill="#436372" d="m55.988 63.64c-13.047 0-23.663 10.615-23.663 23.663s10.615 23.663 23.663 23.663 23.662-10.616 23.662-23.663-10.615-23.663-23.662-23.663zm0 32.325c-4.776 0-8.663-3.886-8.663-8.663s3.886-8.663 8.663-8.663 8.663 3.886 8.663 8.663-3.887 8.663-8.663 8.663z"/>
			<path fill="#a3bbc8" d="m144.301 87.303c0-13.047-10.615-23.663-23.663-23.663s-23.662 10.615-23.662 23.663 10.615 23.663 23.663 23.663 23.662-10.616 23.662-23.663zm-32.325 0c0-4.776 3.886-8.663 8.663-8.663s8.663 3.886 8.663 8.663-3.886 8.663-8.663 8.663-8.663-3.887-8.663-8.663z"/>
			<path fill="#dae4e9" d="m208.951 87.303c0-13.047-10.615-23.663-23.663-23.663s-23.663 10.615-23.663 23.663 10.615 23.663 23.663 23.663 23.663-10.616 23.663-23.663zm-32.325 0c0-4.776 3.886-8.663 8.663-8.663s8.663 3.886 8.663 8.663-3.886 8.663-8.663 8.663-8.663-3.887-8.663-8.663z"/>
			<path fill="#436372" d="m246.48 372.17c0 8.591 6.989 15.58 15.58 15.58h202.03c8.591 0 15.58-6.989 15.58-15.58v-16.16c0-8.596-6.989-15.59-15.58-15.59h-19.19c-4.143 0-7.5 3.358-7.5 7.5s3.357 7.5 7.5 7.5h19.189c.325 0 .58.259.58.59v16.16c0 .325-.255.58-.58.58h-202.029c-.319 0-.58-.26-.58-.58v-16.16c0-.325.261-.59.58-.59h147.84c4.143 0 7.5-3.358 7.5-7.5s-3.357-7.5-7.5-7.5h-147.84c-8.591 0-15.58 6.994-15.58 15.59z"/>
			<path fill="#fcd7b6" d="m304.923 234.123c-.5-5.991-4.033-10.857-9.002-12.396-2.351-.728-8.433-1.67-14.104 5.29-4.943 6.064-29.526 50.478-34.404 59.319-1.282 2.323-1.241 5.151.108 7.436s3.805 3.687 6.458 3.687h35.895c-.046 6.407-.095 12.574-.143 18.076-.035 4.142 3.293 7.528 7.436 7.564h.065c4.112 0 7.463-3.315 7.499-7.436.028-3.286.084-9.988.145-18.205h3.657c4.143 0 7.5-3.358 7.5-7.5s-3.357-7.5-7.5-7.5h-3.557c.13-21.414.21-45.186-.053-48.335zm-14.95 48.336h-23.255c8.524-15.286 18.175-32.275 23.364-40.798.047 8.562-.012 24.406-.109 40.798z"/>
			<path fill="#fcd7b6" d="m468.563 234.125c-.499-5.992-4.032-10.858-9.001-12.396-2.353-.729-8.433-1.672-14.104 5.29-4.943 6.064-29.526 50.478-34.404 59.319-1.281 2.323-1.24 5.151.109 7.436s3.805 3.687 6.458 3.687h35.895c-.046 6.407-.095 12.574-.143 18.076-.035 4.142 3.293 7.528 7.436 7.564h.065c4.112 0 7.463-3.316 7.499-7.436.028-3.287.084-9.988.144-18.205h3.658c4.143 0 7.5-3.358 7.5-7.5s-3.357-7.5-7.5-7.5h-3.558c.13-21.416.209-45.188-.054-48.335zm-14.95 48.334h-23.254c8.523-15.284 18.173-32.272 23.363-40.797.049 8.564-.011 24.407-.109 40.797z"/>
			<path fill="#a3bbc8" d="m394.714 291.463v-38.601c0-17.444-14.192-31.637-31.637-31.637s-31.637 14.192-31.637 31.637v38.601c0 17.444 14.192 31.637 31.637 31.637s31.637-14.193 31.637-31.637zm-48.274 0v-38.601c0-9.173 7.463-16.637 16.637-16.637s16.637 7.463 16.637 16.637v38.601c0 9.173-7.463 16.637-16.637 16.637s-16.637-7.464-16.637-16.637z"/>
			<path fill="#436372" d="m229.154 304.488c0-54.266-44.148-98.415-98.415-98.415s-98.415 44.148-98.415 98.415 44.148 98.415 98.415 98.415 98.415-44.149 98.415-98.415zm-181.829 0c0-45.995 37.419-83.415 83.415-83.415s83.415 37.419 83.415 83.415-37.419 83.415-83.415 83.415-83.415-37.42-83.415-83.415z"/>
			<path fill="#436372" d="m155.565 346.915c0 4.142 3.358 7.5 7.5 7.5s7.5-3.358 7.5-7.5c0-21.959-17.866-39.825-39.825-39.825s-39.825 17.866-39.825 39.825c0 4.142 3.358 7.5 7.5 7.5s7.5-3.358 7.5-7.5c0-13.688 11.137-24.825 24.825-24.825s24.825 11.136 24.825 24.825z"/>
			<path fill="#436372" d="m93.292 284.861 1.84 1.84c1.464 1.465 3.384 2.197 5.303 2.197s3.839-.732 5.303-2.197c2.929-2.929 2.929-7.678 0-10.606l-1.84-1.84 1.84-1.84c2.929-2.929 2.929-7.677 0-10.606-2.928-2.929-7.677-2.929-10.606 0l-1.84 1.84-1.84-1.84c-2.929-2.93-7.678-2.929-10.606 0-2.929 2.929-2.929 7.678 0 10.606l1.84 1.84-1.84 1.84c-2.929 2.929-2.929 7.677 0 10.606 1.464 1.465 3.384 2.197 5.303 2.197s3.839-.732 5.303-2.197z"/>
			<path fill="#436372" d="m155.742 286.701c1.464 1.464 3.384 2.197 5.303 2.197s3.839-.732 5.303-2.197l1.84-1.84 1.84 1.84c1.464 1.464 3.384 2.197 5.303 2.197s3.839-.732 5.303-2.197c2.929-2.929 2.929-7.678 0-10.606l-1.84-1.84 1.84-1.84c2.929-2.929 2.929-7.678 0-10.606-2.929-2.929-7.678-2.929-10.606 0l-1.84 1.84-1.84-1.84c-2.929-2.929-7.678-2.929-10.606 0-2.929 2.929-2.929 7.678 0 10.606l1.84 1.84-1.84 1.84c-2.93 2.928-2.93 7.677 0 10.606z"/>
		</g>
	</g>
</svg>