<svg xmlns="http://www.w3.org/2000/svg" width="22" height="20"><path id="Forma_1" data-name="Forma 1" d="M800.814 1564.63h2.333l3.323 12.04a.812.812 0 00.787.59h10.214a.821.821 0 00.746-.48l3.717-8.56a.836.836 0 00-.068-.78.813.813 0 00-.678-.37H809.9a.82.82 0 000 1.64h10.04l-3.011 6.92h-9.062l-3.323-12.03a.808.808 0 00-.787-.6h-2.943a.815.815 0 000 1.63zm5.67 18.37a1.85 1.85 0 10-1.845-1.85 1.85 1.85 0 001.845 1.85zm11.53 0h.135a1.907 1.907 0 10-.135 0z" transform="translate(-800 -1563)" fill="#fff" fill-rule="evenodd"/></svg>