<svg xmlns="http://www.w3.org/2000/svg" viewBox="0 0 26 26" width="26px" height="26px">
	<path fill="#243f4d" d="M25.48,14.316L13.707,2.543c-0.391-0.391-1.023-0.391-1.414,0L0.551,14.285 c-0.391,0.391-0.391,1.023,0,1.414s1.023,0.391,1.414,0L13,4.664L24.066,15.73c0.195,0.195,0.451,0.293,0.707,0.293 s0.512-0.098,0.707-0.293C25.871,15.34,25.871,14.707,25.48,14.316z"/>
	<path fill="#dae4e9" d="M19 9.25V3.016c0-.551.448-1 1-1h1c.551 0 1 .449 1 1v9.234L19 9.25zM13 6.5l-11 11V23c0 1.656 1.344 3 3 3h16c1.656 0 3-1.344 3-3v-5.5L13 6.5zM16 23c0 .551-.449 1-1 1h-4c-.551 0-1-.449-1-1v-6c0-.551.449-1 1-1h4c.551 0 1 .449 1 1V23z"/>
</svg>