<svg xmlns="http://www.w3.org/2000/svg" width="146" height="38.875">
    <path d="M.157 28.674a1.13 1.13 0 00.622.387l48.041 9.8a1.137 1.137 0 00.908-.212.874.874 0 00.31-.8L43.787.77a.962.962 0 00-.449-.645 1.337 1.337 0 00-.965-.051L7.179 14.118a.9.9 0 00-.507.452C6.501 14.895.178 27.646.089 27.827a.806.806 0 00.068.847zm45.586 6.436l-20.05-11.145 10.339-2.159zm-37.7-18.883l12.526 6.983-17.833 3.715zm1.662-1.172L41.24 2.468l-5.558 17.587-12.371 2.584zM47.363 34.05l-9.779-13.4 4.9-15.52zm-3.886 1.9L5.426 28.187l17.523-3.65z"/>
    <text x="62" y="32" font-size="36" font-family="Rubik" font-weight="500">
        Glee.
    </text>
</svg>
