<svg xmlns="http://www.w3.org/2000/svg" width="146" height="38.875">
	<path id="Path_324" data-name="Path 324" d="M76.157 79.674a1.13 1.13 0 00.622.387l48.041 9.8a1.137 1.137 0 00.908-.212.874.874 0 00.31-.8l-6.251-37.079a.962.962 0 00-.449-.645 1.337 1.337 0 00-.965-.051L83.179 65.118a.9.9 0 00-.507.452c-.171.325-6.494 13.076-6.583 13.257a.806.806 0 00.068.847zm45.586 6.436l-20.05-11.145 10.339-2.159zm-37.7-18.883l12.526 6.983-17.833 3.715zm1.662-1.172l31.535-12.587-5.558 17.587-12.371 2.584zm37.658 18.995l-9.779-13.4 4.9-15.52zm-3.886 1.9l-38.051-7.763 17.523-3.65z" transform="translate(-76 -51)" fill="#a3bbc8" fill-rule="evenodd"/>
	<text id="Glee." x="62" y="32" font-size="36" fill="#436372" font-family="Rubik" font-weight="500">Glee.</text>
</svg>